<?xml version="1.0" encoding="UTF-8" standalone="no"?>
<!-- Created with Inkscape (http://www.inkscape.org/) -->

<svg
   xmlns:dc="http://purl.org/dc/elements/1.1/"
   xmlns:cc="http://creativecommons.org/ns#"
   xmlns:rdf="http://www.w3.org/1999/02/22-rdf-syntax-ns#"
   xmlns:svg="http://www.w3.org/2000/svg"
   xmlns="http://www.w3.org/2000/svg"
   xmlns:xlink="http://www.w3.org/1999/xlink"
   xmlns:sodipodi="http://sodipodi.sourceforge.net/DTD/sodipodi-0.dtd"
   xmlns:inkscape="http://www.inkscape.org/namespaces/inkscape"
   width="256"
   height="256"
   id="svg2"
   sodipodi:version="0.32"
   inkscape:version="0.47 r22583"
   sodipodi:docname="google_voice.svg"
   version="1.0"
   inkscape:output_extension="org.inkscape.output.svg.inkscape">
  <defs
     id="defs4">
    <linearGradient
       inkscape:collect="always"
       id="linearGradient2555">
      <stop
         style="stop-color: rgb(255, 255, 255); stop-opacity: 1;"
         offset="0"
         id="stop2557" />
      <stop
         style="stop-color: rgb(255, 255, 255); stop-opacity: 0;"
         offset="1"
         id="stop2559" />
    </linearGradient>
    <linearGradient
       inkscape:collect="always"
       xlink:href="#linearGradient2555"
       id="linearGradient2449"
       gradientUnits="userSpaceOnUse"
       gradientTransform="matrix(-0.5914583,0,0,0.5914584,210.0216,142.2324)"
       x1="-344.15295"
       y1="274.711"
       x2="-395.84943"
       y2="425.39993" />
  </defs>
  <sodipodi:namedview
     id="base"
     pagecolor="#ffffff"
     bordercolor="#666666"
     borderopacity="1.0"
     inkscape:pageopacity="0.0"
     inkscape:pageshadow="2"
     inkscape:zoom="0.24748737"
     inkscape:cx="138.80354"
     inkscape:cy="94.798647"
     inkscape:document-units="px"
     inkscape:current-layer="layer1"
     inkscape:window-width="853"
     inkscape:window-height="674"
     inkscape:window-x="1"
     inkscape:window-y="281"
     showgrid="false"
     inkscape:window-maximized="0" />
  <metadata
     id="metadata7">
    <rdf:RDF>
      <cc:Work
         rdf:about="">
        <dc:format>image/svg+xml</dc:format>
        <dc:type
           rdf:resource="http://purl.org/dc/dcmitype/StillImage" />
        <dc:title />
        <dc:creator>
          <cc:Agent>
            <dc:title>User:ZyMOS</dc:title>
          </cc:Agent>
        </dc:creator>
        <dc:subject>
          <rdf:Bag />
        </dc:subject>
        <cc:license
           rdf:resource="http://creativecommons.org/licenses/publicdomain/" />
        <dc:description />
        <dc:contributor>
          <cc:Agent>
            <dc:title />
          </cc:Agent>
        </dc:contributor>
        <dc:publisher>
          <cc:Agent>
            <dc:title>Open Icon Library</dc:title>
          </cc:Agent>
        </dc:publisher>
      </cc:Work>
      <cc:License
         rdf:about="http://creativecommons.org/licenses/publicdomain/">
        <cc:permits
           rdf:resource="http://creativecommons.org/ns#Reproduction" />
        <cc:permits
           rdf:resource="http://creativecommons.org/ns#Distribution" />
        <cc:permits
           rdf:resource="http://creativecommons.org/ns#DerivativeWorks" />
      </cc:License>
    </rdf:RDF>
  </metadata>
  <g
     inkscape:label="Layer 1"
     inkscape:groupmode="layer"
     id="layer1"
     transform="translate(-373.642,-318.344)">
    <rect
       inkscape:export-ydpi="7.7063322"
       inkscape:export-xdpi="7.7063322"
       inkscape:export-filename="C:\Documents and Settings\Molumen\Desktop\path3511111.png"
       transform="scale(-1,1)"
       ry="35.487503"
       rx="35.487503"
       y="328.84921"
       x="-619.14587"
       height="234.98955"
       width="235.00784"
       id="rect1942"
       style="fill:#194fc8;fill-opacity:1;fill-rule:evenodd;stroke:none;stroke-width:0.87500000000000000;stroke-linecap:square;stroke-linejoin:miter;stroke-miterlimit:4;stroke-dasharray:0.87500000000000000, 1.75000000000000000;stroke-dashoffset:0;stroke-opacity:1" />
    <path
       inkscape:export-ydpi="7.7063322"
       inkscape:export-xdpi="7.7063322"
       inkscape:export-filename="C:\Documents and Settings\Molumen\Desktop\path3511111.png"
       sodipodi:nodetypes="ccccsssc"
       id="path1950"
       d="M 557.05665,338.89518 L 446.22721,338.89518 C 416.89033,338.89518 393.27256,362.70492 393.27256,392.28025 L 393.27256,500.40761 C 394.22216,523.49366 397.87485,508.89915 404.82758,483.3329 C 412.90814,453.61975 439.22406,427.65003 471.27219,408.1872 C 495.73352,393.33195 523.11328,383.84595 572.95174,382.94353 C 601.21656,382.43177 598.72124,346.26062 557.05665,338.89518 z"
       style="opacity:1;fill:url(#linearGradient2449);fill-opacity:1;fill-rule:evenodd;stroke:none;stroke-width:0.87500000000000000;stroke-linecap:square;stroke-linejoin:miter;stroke-miterlimit:4;stroke-dasharray:0.87500000000000000, 1.75000000000000000;stroke-dashoffset:0;stroke-opacity:1" />
    <path
       style="fill:#ffffff;fill-opacity:1;stroke:#000000;stroke-width:2;stroke-linecap:butt;stroke-linejoin:miter;stroke-miterlimit:4;stroke-opacity:1;stroke-dasharray:none"
       d="m 433.50906,461.3951 -26.26397,46.97209 55.55839,-13.13198 -29.29442,-33.84011 z"
       id="path5740"
       sodipodi:nodetypes="cccc" />
    <path
       sodipodi:type="arc"
       style="fill:#ffffff;fill-opacity:1;fill-rule:nonzero;stroke:#000000;stroke-width:2;stroke-miterlimit:4;stroke-opacity:1;stroke-dasharray:none"
       id="path5204"
       sodipodi:cx="575.53442"
       sodipodi:cy="134.78169"
       sodipodi:rx="92.681496"
       sodipodi:ry="74.751289"
       d="m 668.21592,134.78169 c 0,41.284 -41.49492,74.75129 -92.6815,74.75129 -51.18657,0 -92.68149,-33.46729 -92.68149,-74.75129 0,-41.283995 41.49492,-74.751287 92.68149,-74.751287 51.18658,0 92.6815,33.467292 92.6815,74.751287 z"
       transform="translate(-72.072286,306.91543)" />
    <path
       sodipodi:nodetypes="cccc"
       id="path5742"
       d="M 434.57431,461.3951 409.2654,506.65911 462.80348,494.00466 434.57431,461.3951 z"
       style="fill:#ffffff;fill-opacity:1;stroke:none" />
    <path
       style="fill:#194fc8;fill-opacity:1;stroke:none"
       d="m 481.13391,394.48758 15,17.85714 c 0.8507,2.38095 2.73975,4.7619 10e-6,7.14285 l -11.07144,8.57143 c 0.0384,1.22731 -1.07726,2.0186 -0.84544,5.72692 0.78112,12.49536 5.3361,23.49788 21.13387,29.43897 2.12697,0.82919 5.1383,2.75339 6.59281,0.89276 l 10.8317,-10.84572 c 1.55245,-2.59488 6.44026,-0.77527 8.93228,1.32768 l 15.1405,14.88796 c 1.73808,2.85714 2.32809,4.83041 0.31382,7.68755 L 533.14679,487.406 c -3.22016,1.51824 -5.97955,1.80484 -9.97835,0.0613 -42.3112,-16.49405 -61.62753,-45.65247 -62.03452,-75.47968 -1.73902,-4.99474 0.97692,-6.64826 2.85714,-8.92858 l 11.42857,-9.64285 c 1.90476,-0.42697 3.80952,-1.24673 5.71428,1.07143 l 0,-4e-5 z"
       id="path5744"
       sodipodi:nodetypes="ccccsccccccccccccc" />
  </g>
</svg>
